<svg xmlns="http://www.w3.org/2000/svg" width="1024" height="1024" viewBox="0 0 1024 1024" role="img" aria-label="Orgasmic full wordmark transparent foreground icon">
  <title>Orgasmic full wordmark foreground icon</title>
  <defs>
    <path id="wordmark" fill-rule="evenodd" d="M274 27L257 24L231 27L206 39L194 49L178 50L183 51L184 54L157 76L139 94L135 92L133 100L116 118L94 148L69 190L61 210L55 214L57 218L49 233L45 249L41 255L31 291L24 347L24 361L27 376L25 380L28 383L28 393L33 414L46 443L70 469L87 480L115 489L141 490L166 484L187 472L214 449L240 420L248 408L248 404L266 382L266 379L286 349L294 327L299 323L298 310L302 308L307 301L316 273L316 264L326 210L327 165L323 132L316 106L316 99L308 73L302 64L303 52L297 52L284 34ZM239 42L244 48L241 51L237 51L237 59L253 55L259 56L270 64L270 71L273 79L273 93L277 97L284 94L289 95L293 101L296 120L301 132L301 163L305 167L308 183L306 217L308 223L304 236L304 246L299 251L298 288L290 307L290 313L286 317L272 353L266 361L257 380L252 384L253 387L246 394L230 419L223 424L212 440L187 461L176 467L153 472L128 469L99 456L90 449L64 419L55 396L47 350L47 327L49 321L48 304L54 280L54 269L57 265L59 252L64 243L72 217L76 214L75 211L79 200L93 172L118 131L133 114L136 107L192 58L218 46ZM533 297L526 299L516 309L516 316L521 323L522 332L530 344L530 348L524 356L513 383L496 414L477 441L476 447L471 453L468 462L462 467L464 467L465 470L461 472L460 481L454 491L454 496L458 499L510 497L523 494L577 493L578 496L521 550L510 549L517 551L519 555L512 560L480 598L462 627L460 626L459 610L458 639L447 656L437 684L433 703L427 715L429 720L423 735L421 753L421 786L424 819L429 836L437 852L444 858L455 859L458 854L462 854L476 846L512 813L534 780L555 718L557 716L565 716L557 712L562 693L563 658L559 624L550 593L551 588L566 575L603 552L617 551L615 549L616 546L620 544L625 546L628 541L636 539L644 534L655 532L663 527L671 527L684 520L702 517L720 510L727 504L729 499L727 495L724 495L715 501L689 507L642 523L630 529L624 527L621 533L589 549L581 556L574 558L538 588L531 598L530 603L536 613L541 631L548 676L546 682L547 692L545 695L545 709L542 713L531 714L532 716L536 715L541 718L539 735L528 762L524 779L515 790L510 801L488 825L472 837L464 839L459 836L456 832L457 828L449 819L442 794L440 743L443 716L447 714L445 709L451 684L459 669L460 655L489 603L503 584L511 577L516 568L533 551L538 550L538 546L560 524L567 520L594 495L615 482L621 474L621 471L613 470L612 468L622 461L626 461L626 427L625 444L622 446L606 428L606 422L602 419L600 412L590 399L586 386L582 384L544 311ZM985 114L958 106L940 107L923 111L905 125L886 145L875 165L871 182L867 226L867 250L865 256L868 274L866 281L867 312L870 325L873 376L876 384L875 391L878 408L880 410L880 424L882 429L883 448L885 451L884 458L886 461L886 477L889 501L892 508L891 514L894 541L896 544L895 555L897 559L900 604L899 632L902 641L898 655L899 667L897 672L898 680L895 687L895 700L873 762L860 783L840 801L817 809L783 813L740 812L703 804L670 788L655 775L650 774L636 794L650 806L673 818L701 827L735 832L782 832L785 834L788 831L816 825L830 820L859 798L880 775L894 751L903 724L907 719L906 715L911 704L918 678L923 632L922 559L927 555L921 552L921 532L917 514L915 486L912 477L910 443L906 419L907 412L903 395L906 391L902 389L898 350L894 332L895 318L893 313L891 231L894 228L891 225L893 175L902 145L912 132L920 127L940 126L953 129L980 145L1005 172L1015 198L1017 223L1009 251L1002 267L1003 271L1010 271L1023 253L1030 234L1035 230L1034 226L1038 210L1038 192L1033 170L1022 150ZM833 307L828 306L812 320L804 330L799 341L795 346L795 349L791 350L790 360L783 372L780 372L753 344L736 331L717 325L695 326L684 334L680 335L657 358L653 367L656 377L655 385L653 388L657 390L660 400L664 405L670 418L677 425L678 428L708 454L711 454L715 458L722 460L733 460L738 458L756 444L777 419L780 419L784 421L788 425L789 429L793 431L813 452L815 452L821 460L835 470L838 470L854 458L854 449L848 442L834 431L816 413L812 407L800 394L800 390L795 389L791 383L798 371L801 362L805 357L808 346L812 342L818 329L824 320L833 310ZM1025 343L1011 360L1014 393L1019 398L1019 419L1017 422L1017 446L1009 474L999 485L992 486L986 484L978 477L972 467L970 460L966 458L952 471L952 481L960 497L969 506L978 507L988 505L998 500L1017 480L1031 457L1037 457L1045 465L1057 464L1073 456L1082 447L1089 442L1092 442L1094 444L1099 473L1103 481L1102 485L1107 491L1109 497L1115 502L1125 498L1133 491L1137 483L1125 467L1124 458L1117 443L1118 397L1120 395L1118 392L1118 356L1116 355L1114 357L1110 357L1098 368L1094 374L1095 381L1093 388L1095 393L1093 400L1094 408L1092 422L1080 440L1072 444L1066 444L1062 441L1052 423L1052 418L1046 407L1043 396L1047 393L1043 393L1038 389L1039 369L1036 344L1034 342ZM540 367L543 370L544 374L551 382L551 387L555 391L555 394L557 396L561 406L567 413L567 415L574 427L574 429L580 437L581 441L587 451L587 456L585 459L585 462L593 470L593 472L590 474L587 474L586 475L567 475L566 476L557 475L556 476L548 476L547 477L536 476L535 477L521 477L520 478L515 478L514 479L479 480L477 478L477 472L481 463L484 459L485 455L487 453L489 448L491 446L491 444L496 437L499 428L505 421L510 412L510 410L515 405L523 390L526 387L530 387L530 386L528 385L528 382L530 380L532 374L539 367ZM328 301L317 309L311 317L311 321L313 325L318 327L322 327L326 330L330 330L339 335L356 339L371 340L389 337L391 339L388 347L381 356L378 365L378 371L374 376L373 381L369 384L371 386L371 388L369 391L368 398L366 402L366 408L361 429L361 458L364 463L366 471L377 482L385 484L388 486L406 486L413 483L416 483L424 476L431 473L434 470L434 467L431 464L407 463L399 459L391 452L385 438L385 415L386 414L386 405L390 392L390 388L393 385L393 378L396 373L396 369L398 363L400 361L401 355L410 338L417 329L422 320L427 316L426 309L423 307L411 315L407 315L397 319L380 319L376 317L368 317L365 315L358 314L353 311L341 307L333 301ZM1358 346L1350 347L1337 355L1313 380L1312 384L1308 387L1304 394L1300 398L1300 404L1296 408L1293 415L1293 422L1291 425L1289 436L1289 459L1291 474L1301 492L1315 501L1336 503L1363 496L1377 487L1392 480L1395 475L1412 459L1414 456L1414 453L1419 445L1418 442L1415 443L1404 453L1384 467L1353 478L1340 478L1330 476L1326 474L1316 465L1309 450L1309 439L1307 430L1309 417L1311 414L1311 403L1314 399L1319 398L1319 396L1316 395L1315 393L1327 379L1334 373L1338 371L1344 371L1350 376L1354 385L1353 406L1357 407L1363 399L1371 398L1367 393L1370 390L1373 378L1372 361L1368 352L1365 349ZM678 350L680 350L689 346L708 347L712 349L720 355L724 356L727 359L731 361L744 375L750 379L751 382L756 388L763 393L769 402L767 405L767 411L763 415L761 422L754 431L753 435L749 439L743 439L742 440L740 439L733 439L718 427L715 426L704 416L704 415L692 402L690 398L684 392L685 387L683 387L680 384L676 372L676 365L674 362L674 355ZM1177 386L1175 388L1175 393L1174 394L1174 425L1173 426L1172 433L1173 434L1173 448L1175 454L1176 469L1179 474L1180 479L1182 481L1186 482L1188 484L1188 487L1192 491L1197 494L1201 494L1202 495L1218 495L1219 494L1225 493L1230 490L1235 489L1251 477L1254 472L1254 470L1253 469L1249 469L1246 472L1239 476L1226 478L1225 477L1219 477L1210 473L1205 468L1201 460L1198 457L1198 455L1195 449L1195 442L1194 441L1193 427L1192 426L1192 420L1193 419L1193 413L1192 411L1193 410L1193 397L1194 395L1182 385ZM1196 223L1190 223L1187 224L1181 233L1182 250L1185 253L1196 252L1200 250L1202 247L1201 240L1202 239L1202 235L1204 232L1201 231L1198 228L1198 225Z"/>
    <clipPath id="wordmark-clip"><use href="#wordmark"/></clipPath>
    <filter id="ink-edge" x="-2%" y="-2%" width="104%" height="104%"><feTurbulence type="fractalNoise" baseFrequency=".018 .042" numOctaves="3" seed="11" result="rough"/><feDisplacementMap in="SourceGraphic" in2="rough" scale="2.2" xChannelSelector="R" yChannelSelector="G"/></filter>
    <filter id="ink-grain" x="0" y="0" width="100%" height="100%"><feTurbulence type="fractalNoise" baseFrequency=".09" numOctaves="5" seed="17" result="grain"/><feColorMatrix in="grain" type="matrix" values="0 0 0 0 .31 0 0 0 0 .10 0 0 0 0 .13 0 0 0 .42 .18"/></filter>
  </defs>
  <g transform="translate(58 246) scale(.63)">
    <use href="#wordmark" fill="#55252e" filter="url(#ink-edge)"/>
    <g clip-path="url(#wordmark-clip)" opacity=".72"><rect width="1444" height="884" fill="#6b3038" filter="url(#ink-grain)"/></g>
  </g>
</svg>
